<svg xmlns="http://www.w3.org/2000/svg"  width="449.392" height="93.842" viewBox="0 0 449.392 93.842"><g transform="translate(-47.344 204)"><path d="M66.9-201.7c-5.1,2.7-10.2,9.6-12.3,16.7-3.5,11.7-7.8,35.6-7.2,40.2,1.2,10.6,4,12.1,23.7,12.6,17.9.5,24-.8,28.8-6.3,4-4.6,5.5-8.4,7.6-18.6,1-4.6,1.9-8.9,2.2-9.6.4-1.1-2.4-1.3-15.3-1.1l-15.8.3-.7,3.2-.6,3.3H100l-.6,2.7c-1.5,7.1-3.5,13-4.9,15-2.2,3.1-7.4,4.3-19,4.3-13.5,0-17.2-1.1-19.1-5.7-1.4-3.3-1.3-4.6,1.6-18.7,4.5-21.7,5.9-26.3,9.2-29.6,3.7-3.7,6.6-4.2,22.7-3.8,15.7.4,16.7.9,15.6,9l-.7,4.8h4c4.6,0,5.2-1.1,5.2-9.6,0-5.5-2-8.7-6.7-10.5-1.3-.5-10-.9-19.2-.9C72.5-204,71-203.8,66.9-201.7Z" fill="#f9a8d4"/><path d="M245.1-183.8c-2.3,11.2-5.7,27.4-7.6,36.2l-3.3,15.8,24.6-.4c22.4-.4,25.1-.6,29.4-2.5,6.2-2.8,9.4-7.9,11.5-17.9,2-9.7.9-13.2-4.7-15l-3.5-1.2,4.3-1.7c5.2-2.1,8.6-7.4,10.1-15.8,1.3-7,.6-10.9-2.4-13.7-3.6-3.4-8.3-4-32.1-4H249.3Zm40.3.6c-.1,6.5-1.7,7.5-12.9,8-5.6.3-9.5.1-9.5-.5,0-.5.5-3.5,1.1-6.7l1.2-5.7,10.1.3,10.1.3Zm-5,22.8c2,1.9,2,2.6.1,6.9a8.187,8.187,0,0,1-4,4.5c-2.6,1-19.5,1.4-19.5.5,0-.7,2.1-10.9,2.5-12.3C260.2-162.7,278.4-162.5,280.4-160.4Z" fill="#f9a8d4"/><path d="M175.5-181.8a33.429,33.429,0,0,0-6.1,3.3l-3,2.3.4-2.9c.4-2.7.2-2.9-3.1-2.9-4.3,0-3.4-2.3-9.2,25-2.5,11.8-4.8,22.3-5.1,23.2-.4,1.5.1,1.8,3.5,1.8,2.3,0,4.1-.2,4.1-.4,0-2.6,7.4-33.7,8.6-36.2,2.1-4.4,7.2-7.4,13.6-8.1,6.4-.6,10.5.8,11.3,3.9.3,1.3-1.2,10.8-3.4,21.2-2.3,10.3-4.1,19-4.1,19.2s1.7.4,3.8.4h3.8l3.8-17.8c3.7-17.7,5-20.9,9.8-24.5,3.2-2.4,13.3-3.3,16.8-1.5,3.7,2,3.6,5.9-.5,25.2-1.9,9.2-3.5,17.2-3.5,17.8,0,.5,1.7.8,3.7.6l3.7-.3,3.8-17.5c4.5-21.1,4.8-26.1,1.4-29.5-4.8-4.8-18.5-4.7-26.5.3-4.6,2.8-4.8,2.9-6,1C194.4-182.5,182.9-184.4,175.5-181.8Z" fill="#f9a8d4"/><path d="M323.5-182.1c-4.1,1.1-8.7,3.5-10.6,5.7-4.7,5.4-8.9,19.6-8.9,30.3,0,7.4,2.9,11.5,9.3,13.2,5.9,1.6,24.3.7,28.2-1.3,5.3-2.8,10.5-9.7,10.5-13.9,0-.5-3.4-.9-7.6-.9-6.9,0-7.8.2-9.5,2.4-2.6,3.3-9.1,4.4-12.4,2.2-2.7-1.8-3.3-5.3-1.5-8.7,1-1.8,2.3-1.9,17-1.9h15.9l.7-4.8c2.9-18.1-.5-22.4-18.1-22.8A72.238,72.238,0,0,0,323.5-182.1Zm14.8,11.8c.4.2.7,1.7.7,3.4v2.9h-7.9c-7.3,0-7.9-.1-7.4-1.9a8.318,8.318,0,0,1,5.8-5.4C331.5-171.8,336.8-171.2,338.3-170.3Z" fill="#f9a8d4"/><path d="M374.7-181.5a17.168,17.168,0,0,0-10.3,9.2,21.314,21.314,0,0,0-1.4,3.8c0,.3,3.6.5,8,.5,7.1,0,8.2-.3,10.4-2.5,4.6-4.6,13.6-2.4,12.2,2.9-.3,1.2-.9,3.8-1.2,6l-.7,3.9-1.8-2.4c-1.6-2.2-2.7-2.4-10.6-2.7-7.6-.3-9.4,0-13.3,2-5.4,2.7-8.6,8-9.5,15.3-1.3,10.4,3.1,14,16.4,13.3,6.1-.2,8.3-.8,11-2.7l3.4-2.5-.7,2.7L386-132h16.6l3.7-17.8c5.4-25.9,4.9-29.7-4-32.1C396.9-183.4,379.3-183.2,374.7-181.5Zm13.7,30c2.2,2.3.2,7.3-3.2,8.2-4.5,1.1-9.2.8-10.8-.8-2-2.1-.9-6.8,2-7.9C379.9-153.4,386.7-153.1,388.4-151.5Z" fill="#f9a8d4"/><path d="M443.4-181.1c-2.3,1.1-4.7,2.7-5.4,3.8-1,1.5-1.1,1.3-.6-1.5l.6-3.2h-8c-7.9,0-8,0-8.7,2.7-.3,1.6-2.8,12.7-5.3,24.8l-4.7,22,8,.3a65.6,65.6,0,0,0,8.3,0c.1-.2,1.8-7.7,3.8-16.7,4-18.6,5.4-21.1,11.7-21.1,6.4,0,6.5,1,2.5,19.8-2,9.2-3.6,17.1-3.6,17.5,0,.5,3.7.7,8.2.5l8.3-.3,3.2-15.2c1.8-8.4,3.9-16.6,4.8-18.3,1.6-3.2,4.5-4.4,9.1-3.8,4.1.4,4.1,3.4.4,20.3-1.6,7.6-3,14.7-3,15.7,0,1.6,1,1.8,7.9,1.8h7.9l1.5-6.8c5.5-24.2,7.1-34.1,6.2-36.8-1.6-4.3-5.7-6.7-12.4-7.2-7-.5-14.5,2.5-16.3,6.4l-1.1,2.3-1.6-3.2a11.68,11.68,0,0,0-4.1-4.4C457.3-183.6,448.1-183.2,443.4-181.1Z" fill="#f9a8d4"/><path d="M114-180.7c0,4.6,7.2,48.2,8.1,48.8,1.4.8-3,9.6-6.5,12.8a9.043,9.043,0,0,1-5.5,2.4c-2.4,0-3,.5-3.4,2.6-.8,3.7.5,4.4,5.8,3.7a16.118,16.118,0,0,0,8.7-4.4c4.1-3.7,6-7.3,27.4-52l7.3-15.3-4.1.3-4.1.3L141.4-168c-3.5,7.4-8,17.1-10.1,21.5l-3.7,8-.7-3.5c-.4-1.9-1.7-11.7-3-21.8L121.6-182h-3.8C115.4-182,114-181.5,114-180.7Z" fill="#f9a8d4"/></g></svg>
